<svg version="1.1" id="Layer_1" xmlns="http://www.w3.org/2000/svg" xmlns:xlink="http://www.w3.org/1999/xlink" x="0px" y="0px"
	 width="100%" viewBox="0 0 288 288" enable-background="new 0 0 288 288" xml:space="preserve">
<path fill="#000000" opacity="1.000000" stroke="none" 
	d="
M108.798248,235.308899 
	C98.650124,228.963806 91.786354,220.285004 85.634949,210.500793 
	C81.124031,203.325897 76.410698,195.919449 69.120361,190.760757 
	C62.732067,186.240372 59.651684,179.702759 59.678593,171.853180 
	C59.686970,169.409363 59.132362,167.269089 57.753670,165.286072 
	C53.024925,158.484589 52.334705,150.939987 54.702656,143.319244 
	C56.953709,136.074707 54.948833,129.068924 54.453411,122.012199 
	C53.588047,109.686028 57.403152,99.869461 67.745735,92.674881 
	C74.058914,88.283264 80.369751,83.974976 87.680489,81.403221 
	C89.884041,80.628059 91.134850,79.194466 92.071198,77.024643 
	C97.416031,64.638885 107.269142,58.526222 120.427826,58.752789 
	C151.192261,59.282494 177.975937,68.998520 197.149338,94.494019 
	C205.003525,104.937950 209.256088,117.005432 211.197540,129.865356 
	C211.561813,132.278122 211.615051,134.140167 214.620010,135.062637 
	C217.826004,136.046829 217.389084,139.102814 216.070175,141.333038 
	C211.901321,148.382401 210.537933,156.258499 210.439087,164.066177 
	C210.213242,181.902069 207.211823,198.838196 197.748886,214.250656 
	C183.423157,237.583221 161.863220,245.822861 135.558380,243.825287 
	C126.163361,243.111847 117.218018,240.528412 108.798248,235.308899 
M109.778458,144.197952 
	C107.257996,144.514297 106.768997,146.403076 106.355309,148.461594 
	C104.718307,156.607513 103.009735,164.739059 101.361893,172.882843 
	C101.001396,174.664444 101.058090,176.919937 98.770279,177.180756 
	C96.390106,177.452087 96.158386,175.037048 95.389824,173.473373 
	C92.456474,167.505325 89.941757,161.319214 85.504631,156.187775 
	C83.723740,154.128220 81.957466,153.695587 79.378563,154.597916 
	C71.715042,157.279205 66.265999,164.366058 66.450439,171.781448 
	C66.632027,179.082260 72.392960,186.507553 80.098862,188.289215 
	C84.073242,189.208130 85.741234,191.379196 87.357780,194.811996 
	C91.580200,203.778427 96.239853,212.990128 102.416306,220.334534 
	C117.929977,238.781860 150.135971,242.433273 171.844498,229.825577 
	C189.840454,219.374069 197.877884,202.473022 201.614487,182.971634 
	C202.531998,178.183105 203.545700,173.264053 202.129929,167.877670 
	C195.801498,169.872147 189.851318,169.118698 183.766129,166.065445 
	C185.090973,168.269516 186.145340,169.932678 187.110229,171.646240 
	C189.757462,176.347504 189.361053,180.891052 186.243210,185.220505 
	C183.153961,189.510269 178.603928,190.548416 173.828873,189.889114 
	C171.356628,189.547791 166.865829,189.986664 167.206696,186.267029 
	C167.613831,181.823944 171.508133,184.403091 174.042755,184.546875 
	C174.871964,184.593903 175.715317,184.669617 176.534225,184.575546 
	C182.243973,183.919647 184.843185,179.258347 182.031158,174.275345 
	C180.158142,170.956329 177.818787,167.892838 175.595016,164.781555 
	C173.485580,161.830246 172.705963,158.508591 174.374435,155.382050 
	C176.057114,152.228928 174.674576,149.587769 174.079605,146.756470 
	C173.799896,145.425491 173.197388,144.146072 171.475784,144.248718 
	C169.745102,144.351913 169.518753,145.699509 169.198624,147.047836 
	C168.159485,151.424301 166.943527,155.741943 164.824921,159.756592 
	C161.080795,166.851532 154.596237,169.169922 147.280563,168.987366 
	C139.237671,168.786667 134.404968,164.669266 132.032410,156.867157 
	C130.973083,153.383591 130.264603,149.765030 129.730652,146.158325 
	C129.242172,142.858795 127.578369,141.403458 124.353271,141.860626 
	C119.749817,142.513184 115.164398,143.293060 109.778458,144.197952 
M180.256332,130.178970 
	C178.037140,129.549194 175.855270,128.677078 173.592758,128.328583 
	C157.748398,125.888161 141.236557,128.962524 125.334793,121.591545 
	C126.612389,126.869049 123.989624,126.997581 120.783981,126.857208 
	C115.858284,126.641510 111.258484,124.216805 105.851967,124.517159 
	C106.401901,128.607407 106.930237,132.335510 107.395149,136.071503 
	C107.667999,138.264160 109.138184,138.828384 110.958130,138.597382 
	C119.857353,137.467834 128.976303,136.151062 136.967255,132.400879 
	C148.258987,127.101616 157.990585,127.809875 167.491699,135.533081 
	C169.690582,137.320496 172.694290,137.423431 174.465637,136.034134 
	C176.566971,134.386047 179.377808,133.294540 180.256332,130.178970 
z"/>
<path fill="#000000" opacity="1.000000" stroke="none" 
	d="
M175.024261,199.926270 
	C177.448761,199.105759 179.473724,198.343155 181.544144,197.735336 
	C183.222076,197.242737 185.268753,196.099182 186.239227,198.597092 
	C186.977402,200.497070 185.710678,201.686157 183.995651,202.423370 
	C182.543823,203.047440 181.662918,204.105606 181.209854,205.695267 
	C178.677963,214.579086 170.861084,216.597870 162.858459,214.800568 
	C155.570465,213.163727 149.444000,208.179031 141.816437,207.399612 
	C140.307404,207.245422 139.569504,206.028564 139.938690,204.446808 
	C140.325455,202.789749 141.701416,202.588303 143.063522,202.595917 
	C147.553238,202.621017 152.044357,202.651672 156.531693,202.787079 
	C162.743668,202.974518 168.803040,202.263123 175.024261,199.926270 
M173.570633,207.921417 
	C173.974243,207.420746 174.377869,206.920090 175.310852,205.762787 
	C170.435577,206.831741 166.299255,207.738678 161.494461,208.792175 
	C165.858414,209.814194 169.538223,210.859528 173.570633,207.921417 
z"/>
<path fill="#000000" opacity="1.000000" stroke="none" 
	d="
M76.773560,170.269867 
	C76.093979,167.194641 76.277496,164.633774 79.509216,164.059464 
	C82.539513,163.520950 83.344322,166.100601 83.999512,168.355103 
	C84.597977,170.414398 85.036095,172.527069 85.426491,174.638107 
	C85.795334,176.632523 85.277786,178.400513 83.148598,179.001328 
	C80.867851,179.644913 79.264603,178.547913 78.517685,176.365982 
	C77.875519,174.490112 77.401711,172.556595 76.773560,170.269867 
z"/>
<path fill="#000000" opacity="1.000000" stroke="none" 
	d="
M135.602127,210.032928 
	C132.134689,204.611526 133.861298,199.848206 141.446152,197.190887 
	C137.550964,201.604553 136.042648,205.604980 135.602127,210.032928 
z"/>
</svg>